<?xml version="1.0" standalone="no"?>
<!DOCTYPE svg PUBLIC "-//W3C//DTD SVG 20010904//EN"
 "http://www.w3.org/TR/2001/REC-SVG-20010904/DTD/svg10.dtd">
<svg version="1.0" xmlns="http://www.w3.org/2000/svg"
 width="3513.000000pt" height="854.000000pt" viewBox="0 0 3513.000000 854.000000"
 preserveAspectRatio="xMidYMid meet">
<metadata>
Created by potrace 1.14, written by Peter Selinger 2001-2017
</metadata>
<g transform="translate(0.000000,854.000000) scale(0.100000,-0.100000)"
fill="#ffffff" stroke="none">
<path d="M6695 7971 c-275 -109 -518 -207 -540 -219 -47 -24 -116 -93 -140
-140 -25 -51 -35 -129 -23 -192 17 -95 62 -163 210 -317 175 -182 334 -367
378 -439 26 -43 34 -68 34 -106 1 -45 -3 -53 -36 -83 -70 -64 -239 -94 -534
-95 -138 0 -218 12 -254 39 -51 37 -59 66 -83 302 l-22 224 -158 3 c-121 2
-158 0 -162 -10 -2 -7 -14 -110 -25 -228 -24 -245 -32 -283 -63 -305 -28 -20
-116 -20 -145 1 -42 29 -53 70 -78 287 -13 117 -24 215 -24 220 0 4 -72 7
-160 7 -88 0 -160 -3 -160 -7 -1 -66 -53 -441 -65 -463 -24 -46 -58 -63 -124
-63 -93 1 -157 44 -204 138 -8 17 -40 114 -72 217 l-58 187 -170 -60 c-94 -32
-172 -61 -175 -63 -2 -3 12 -53 32 -113 94 -281 118 -572 61 -732 -49 -139
-148 -225 -308 -268 -88 -24 -337 -23 -426 1 -126 34 -212 99 -261 196 -84
166 -60 437 68 757 l21 51 -166 67 c-91 36 -167 65 -168 63 -7 -9 -76 -194
-99 -265 -67 -214 -89 -455 -57 -633 49 -275 193 -461 433 -557 120 -49 236
-67 433 -67 203 0 290 13 435 68 249 93 415 300 475 591 9 44 17 80 18 82 2 1
32 -7 67 -18 52 -17 84 -20 160 -16 124 5 191 31 269 102 l58 54 39 -40 c104
-108 271 -147 423 -100 63 19 154 79 172 112 10 19 13 18 60 -20 121 -96 187
-111 499 -111 135 0 277 5 315 10 389 56 585 235 585 534 0 103 -16 168 -62
261 -52 103 -147 220 -421 515 -110 119 -115 126 -94 136 12 6 201 80 420 165
l397 153 0 193 c0 148 -3 193 -12 193 -7 0 -238 -90 -513 -199z"/>
<path d="M18115 7880 l-120 -120 123 -123 122 -122 122 122 123 123 -120 120
c-66 66 -122 120 -125 120 -3 0 -59 -54 -125 -120z"/>
<path d="M10738 7263 c-3 -716 -3 -729 -24 -768 -32 -61 -85 -93 -177 -106
-93 -12 -198 0 -237 29 -52 39 -60 68 -83 304 l-22 223 -160 0 -160 0 -17
-160 c-33 -316 -38 -330 -113 -369 -88 -45 -372 -45 -434 1 -53 40 -61 70 -82
285 -11 112 -22 213 -25 226 -4 22 -7 22 -163 22 l-158 0 -12 -127 c-24 -251
-37 -330 -59 -361 -38 -52 -103 -72 -266 -79 l-144 -6 -7 59 c-18 159 -72 341
-133 451 -35 64 -146 174 -202 201 -166 79 -347 64 -485 -41 -139 -106 -242
-323 -252 -533 -9 -166 28 -274 124 -365 96 -91 211 -128 416 -136 75 -3 137
-8 137 -10 0 -3 -16 -29 -36 -59 -100 -151 -298 -244 -584 -275 l-109 -12 5
-26 c3 -14 18 -95 33 -179 15 -83 30 -155 33 -158 10 -9 230 25 339 52 264 67
433 176 553 358 59 89 77 126 111 231 l23 70 189 6 c156 5 200 10 258 29 73
23 149 63 200 104 l30 24 44 -39 c53 -47 146 -93 219 -108 76 -16 353 -14 432
3 99 21 173 53 239 101 l59 44 43 -40 c52 -48 122 -83 209 -105 101 -25 328
-15 435 19 221 72 343 229 375 481 6 47 10 365 10 773 l0 693 -185 0 -185 0
-2 -727z m-2828 -525 c56 -39 100 -149 116 -288 l7 -60 -101 0 c-126 0 -198
15 -230 47 -22 22 -24 31 -19 81 7 77 42 165 81 207 27 29 41 35 73 35 25 0
52 -8 73 -22z"/>
<path d="M14320 7000 l0 -990 180 0 180 0 0 990 0 990 -180 0 -180 0 0 -990z"/>
<path d="M33715 7730 c-69 -68 -125 -129 -125 -135 0 -6 56 -66 125 -135 l125
-125 125 125 c69 69 125 129 125 135 0 6 -56 66 -125 135 l-124 124 -126 -124z"/>
<path d="M8780 7545 l-125 -125 128 -128 127 -127 127 127 128 128 -125 125
c-69 69 -127 125 -130 125 -3 0 -61 -56 -130 -125z"/>
<path d="M16362 7547 l-122 -122 130 -130 130 -130 127 128 128 127 -125 125
c-69 69 -129 125 -135 125 -6 0 -65 -55 -133 -123z"/>
<path d="M17887 7482 c-64 -64 -117 -122 -117 -127 0 -5 53 -63 117 -127 l118
-118 117 117 118 118 118 -118 117 -117 123 123 122 122 -123 123 -122 122
-118 -117 -117 -118 -118 118 -117 117 -118 -118z"/>
<path d="M25768 7351 l-107 -158 61 -43 c122 -86 306 -240 376 -315 90 -96
132 -177 132 -254 0 -88 -35 -128 -145 -163 -64 -21 -89 -23 -285 -23 -168 0
-232 4 -294 18 -43 9 -82 17 -87 17 -5 0 -9 -85 -9 -189 l0 -189 48 -11 c179
-38 510 -39 677 -2 135 31 258 95 331 174 193 207 188 503 -14 787 -63 89
-208 237 -317 324 -84 67 -248 186 -256 186 -2 0 -52 -72 -111 -159z"/>
<path d="M12390 7333 l-103 -137 38 -32 39 -32 -56 -63 c-161 -186 -242 -370
-242 -549 1 -251 134 -421 378 -484 187 -49 408 -20 544 70 122 81 202 204
223 343 44 294 -190 640 -667 984 l-52 37 -102 -137z m377 -603 c63 -76 93
-139 93 -195 0 -108 -61 -148 -224 -147 -119 0 -166 15 -196 64 -53 88 -8 217
128 360 l54 57 50 -42 c27 -23 69 -67 95 -97z"/>
<path d="M22332 7332 l-101 -137 37 -31 36 -32 -39 -47 c-177 -211 -244 -350
-252 -530 -3 -59 -1 -124 6 -157 37 -174 176 -311 372 -364 80 -22 280 -25
359 -5 148 36 296 144 354 258 124 246 42 526 -240 823 -108 113 -331 300
-420 353 -6 4 -53 -51 -112 -131z m361 -582 c76 -84 111 -153 111 -216 0 -104
-66 -147 -224 -147 -119 0 -178 22 -203 76 -43 90 -4 193 128 343 l57 64 39
-30 c21 -17 63 -58 92 -90z"/>
<path d="M32724 7290 c-251 -37 -412 -298 -469 -760 -8 -68 -15 -130 -15 -137
0 -15 -84 -16 -182 -4 -100 12 -139 67 -189 259 -40 156 -88 251 -164 327 -33
33 -81 70 -105 82 -146 71 -327 69 -463 -4 -121 -66 -204 -171 -322 -403 -45
-91 -94 -177 -108 -192 -46 -49 -104 -71 -188 -71 -118 1 -172 27 -198 96 -6
15 -20 120 -31 235 -12 114 -23 213 -25 220 -4 10 -41 12 -162 10 l-158 -3
-22 -217 c-12 -119 -27 -227 -34 -240 -41 -80 -103 -102 -299 -102 -141 -1
-146 0 -192 27 -65 38 -88 81 -164 312 -36 110 -67 201 -68 203 -4 3 -329
-110 -338 -117 -4 -3 11 -62 33 -130 76 -240 106 -472 80 -628 -17 -100 -66
-197 -130 -256 -97 -90 -205 -122 -416 -121 -158 0 -231 15 -327 66 -216 115
-251 410 -99 837 23 63 38 118 34 121 -19 16 -318 129 -324 122 -15 -17 -91
-231 -118 -335 -43 -163 -55 -260 -48 -411 19 -452 260 -710 717 -766 242 -29
483 6 670 97 79 39 110 62 181 133 75 74 94 100 138 191 46 95 91 240 91 297
0 26 0 26 70 2 45 -16 83 -19 213 -20 226 0 352 33 470 124 l49 37 49 -46 c86
-80 194 -115 360 -115 167 0 280 35 386 118 43 34 52 38 64 27 32 -32 181
-108 269 -137 85 -28 108 -32 220 -32 117 -1 129 1 185 27 33 15 77 44 97 64
l38 37 22 -22 c13 -11 50 -33 83 -49 55 -25 72 -28 219 -33 l159 -5 23 -88
c78 -294 235 -492 493 -622 l74 -37 105 105 104 104 -1 119 c-3 228 45 338
174 395 45 20 74 23 275 30 183 6 239 11 298 28 210 61 329 179 379 378 13 52
17 112 17 253 0 194 -13 303 -55 446 l-21 70 -176 -32 c-98 -18 -177 -33 -178
-34 -1 0 9 -46 22 -102 34 -151 47 -275 42 -397 -5 -129 -23 -167 -93 -201
-51 -25 -173 -40 -326 -40 -78 0 -124 -5 -170 -20 -164 -51 -319 -214 -459
-485 -29 -55 -56 -101 -60 -103 -23 -9 -132 222 -113 238 4 4 31 15 58 25 302
107 526 439 525 779 -1 264 -133 445 -347 476 -37 5 -70 9 -73 9 -3 -1 -28 -5
-56 -9z m116 -380 c59 -31 51 -233 -13 -343 -15 -25 -48 -64 -74 -87 -47 -42
-149 -97 -160 -87 -8 9 17 217 37 305 34 143 89 222 157 222 19 0 43 -4 53
-10z m-1399 -203 c54 -36 92 -122 97 -220 4 -74 2 -85 -19 -111 -21 -27 -25
-28 -88 -24 -73 6 -136 33 -233 101 -32 22 -58 41 -58 42 0 13 39 91 67 133
64 95 161 128 234 79z"/>
<path d="M19818 7241 c-77 -25 -140 -67 -215 -143 -63 -65 -177 -230 -171
-249 2 -5 66 -48 143 -94 l140 -84 25 29 c14 15 47 53 73 84 82 96 132 110
283 81 86 -16 404 -104 417 -115 11 -9 -332 -203 -433 -244 -203 -83 -386
-117 -640 -119 -143 -2 -170 0 -202 17 -69 34 -78 61 -104 314 -13 125 -23
228 -23 230 -1 1 -73 2 -161 2 -121 0 -160 -3 -160 -12 0 -7 -11 -115 -24
-239 -30 -285 -40 -309 -132 -309 -64 0 -108 32 -123 88 -9 32 -51 390 -51
428 0 11 -32 14 -160 14 -157 0 -160 0 -164 -22 -3 -13 -15 -110 -26 -216 -12
-113 -28 -207 -37 -226 -23 -48 -66 -70 -138 -69 -131 1 -155 39 -179 278 -9
88 -19 181 -23 208 l-6 47 -158 0 c-121 0 -159 -3 -159 -12 0 -58 -52 -404
-64 -427 -35 -67 -108 -93 -260 -95 -133 -1 -194 17 -225 67 -24 41 -28 59
-46 257 -8 91 -18 182 -21 203 l-6 37 -158 0 -157 0 -6 -47 c-3 -27 -13 -122
-23 -213 -19 -192 -34 -235 -93 -268 -45 -26 -148 -41 -273 -42 l-87 0 -5 33
c-47 312 -105 465 -221 583 -161 164 -404 189 -592 60 -167 -114 -291 -425
-263 -654 18 -141 100 -262 220 -322 87 -44 171 -62 323 -69 l139 -6 -42 -63
c-101 -151 -297 -243 -581 -273 l-109 -12 5 -31 c3 -17 18 -98 33 -181 l28
-150 54 3 c165 8 425 77 560 148 180 94 311 254 386 469 l31 90 189 6 c172 5
196 8 269 33 85 29 119 47 180 96 l38 30 42 -39 c104 -95 213 -125 440 -119
141 4 169 8 239 32 75 25 170 79 196 111 11 13 20 9 60 -29 86 -81 187 -116
330 -116 134 0 221 29 313 104 l58 47 49 -44 c89 -80 188 -113 321 -105 65 4
91 11 154 42 44 22 86 51 102 71 l27 33 40 -34 c101 -87 204 -114 428 -114
193 0 348 18 509 59 252 64 433 149 726 343 253 167 391 250 428 258 l30 6 9
147 c4 81 6 153 3 161 -3 8 -33 15 -88 20 -110 9 -285 47 -444 96 -349 107
-404 123 -489 141 -115 24 -223 24 -298 0z m-4328 -498 c35 -24 48 -41 75 -98
20 -42 55 -195 55 -241 0 -11 -22 -14 -100 -14 -117 0 -189 14 -226 42 -25 20
-26 25 -22 88 6 79 48 180 90 215 35 30 92 33 128 8z"/>
<path d="M28290 7035 l-125 -125 130 -130 130 -130 122 122 c68 68 123 127
123 133 0 10 -240 255 -250 255 -3 0 -61 -56 -130 -125z"/>
<path d="M24580 7126 c-80 -22 -124 -49 -195 -120 -79 -79 -137 -180 -177
-306 -20 -64 -23 -96 -23 -220 0 -177 16 -228 102 -320 100 -109 228 -153 441
-153 72 0 132 -3 132 -5 0 -3 -14 -27 -31 -54 -99 -153 -298 -250 -577 -280
-59 -6 -109 -13 -111 -14 -1 -2 12 -84 30 -184 l33 -181 55 6 c198 22 414 80
542 146 341 177 504 560 434 1024 -47 311 -156 519 -325 618 -90 52 -230 71
-330 43z m177 -390 c16 -13 41 -50 57 -81 32 -67 69 -203 64 -242 -3 -25 -8
-29 -53 -36 -66 -10 -191 0 -233 20 -18 9 -38 25 -44 37 -29 54 9 229 63 291
27 30 37 35 74 35 31 0 52 -7 72 -24z"/>
<path d="M13715 6854 c-82 -40 -154 -75 -160 -77 -5 -2 16 -55 47 -118 89
-181 118 -291 118 -445 0 -286 -199 -476 -564 -539 -49 -8 -104 -15 -122 -15
-24 0 -34 -5 -34 -15 0 -9 14 -90 30 -182 17 -91 30 -168 30 -170 0 -6 97 5
200 23 327 57 557 198 696 427 149 246 174 545 73 860 -33 103 -136 319 -154
323 -5 1 -77 -31 -160 -72z"/>
<path d="M23655 6853 c-88 -43 -162 -78 -164 -80 -2 -1 22 -51 52 -110 174
-341 164 -622 -28 -802 -114 -106 -265 -168 -468 -192 -56 -7 -103 -13 -105
-14 -5 -4 60 -350 67 -357 4 -5 45 -3 91 3 416 51 679 208 824 489 137 265
147 558 30 869 -28 75 -125 271 -133 271 -3 0 -78 -35 -166 -77z"/>
<path d="M9482 5692 l-121 -129 125 -124 124 -124 117 118 118 117 115 -115
115 -115 125 125 125 125 -125 125 -125 125 -117 -117 -118 -118 -118 118
-118 118 -122 -129z"/>
<path d="M20230 5695 l-125 -125 130 -130 130 -130 127 127 128 128 -127 127
c-70 71 -130 128 -133 128 -3 0 -61 -56 -130 -125z"/>
<path d="M29555 5690 l-120 -120 125 -125 125 -125 115 115 115 115 117 -117
118 -118 125 125 125 125 -125 125 -125 125 -113 -113 c-62 -61 -117 -112
-122 -112 -6 0 -60 50 -120 110 -60 61 -112 110 -115 110 -3 0 -59 -54 -125
-120z"/>
<path d="M27337 4022 l-127 -127 128 -128 127 -127 128 128 127 127 -128 128
-127 127 -128 -128z"/>
<path d="M6730 4035 c-85 -34 -323 -129 -528 -210 -404 -159 -446 -183 -497
-270 -15 -24 -32 -73 -38 -109 -9 -54 -8 -74 7 -129 25 -92 60 -142 195 -282
116 -120 290 -315 348 -390 48 -63 73 -120 73 -167 0 -55 -19 -82 -78 -112
-91 -45 -139 -51 -434 -51 -376 0 -357 -15 -394 328 -12 122 -23 223 -24 225
0 1 -72 2 -160 2 -112 0 -160 -3 -160 -11 0 -50 -43 -420 -52 -442 -14 -37
-70 -84 -115 -96 -50 -14 -324 -14 -360 0 -44 16 -80 57 -92 102 -6 23 -18
116 -26 207 -9 91 -18 182 -21 203 l-6 37 -159 0 c-93 0 -159 -4 -159 -9 0
-42 -42 -404 -50 -433 -13 -45 -67 -94 -121 -108 -25 -7 -101 -10 -188 -8
-144 3 -148 4 -185 31 -38 30 -85 118 -206 390 -29 64 -56 117 -60 117 -7 0
-321 -149 -329 -156 -2 -2 13 -32 32 -68 83 -150 123 -271 137 -416 19 -178
-23 -305 -139 -420 -109 -109 -263 -174 -476 -201 -55 -7 -101 -13 -103 -14
-5 -4 59 -350 66 -357 4 -4 43 -2 87 3 392 49 658 199 804 453 43 76 101 228
101 266 0 24 -5 24 67 5 78 -21 328 -20 431 1 91 18 203 68 255 114 l37 32 38
-34 c51 -46 99 -75 168 -100 84 -30 364 -38 485 -14 97 19 209 69 261 115 l37
32 56 -45 c71 -59 100 -73 192 -97 65 -16 111 -19 307 -19 323 0 479 26 637
105 289 146 355 492 151 792 -43 63 -195 238 -371 427 -61 66 -108 122 -105
125 3 3 191 78 417 166 l412 160 3 189 c1 104 -1 193 -5 196 -5 4 -78 -21
-163 -55z"/>
<path d="M10440 2920 l0 -990 180 0 180 0 0 990 0 990 -180 0 -180 0 0 -990z"/>
<path d="M12932 3163 c4 -732 4 -750 25 -825 32 -114 71 -185 138 -254 71 -72
157 -117 265 -140 112 -24 465 -15 572 14 146 40 249 106 318 207 76 110 111
325 90 555 -10 117 -45 302 -68 361 l-10 26 -174 -31 c-156 -28 -173 -33 -172
-51 1 -11 11 -65 23 -120 49 -230 50 -450 4 -514 -11 -14 -41 -37 -69 -51 -46
-23 -60 -25 -233 -28 -153 -3 -190 -1 -227 13 -51 19 -87 62 -103 120 -7 27
-11 268 -11 753 l0 712 -185 0 -186 0 3 -747z"/>
<path d="M21922 3143 l3 -768 28 -79 c37 -104 70 -158 133 -221 110 -108 236
-145 495 -145 191 0 320 16 493 59 l112 29 110 -29 c379 -100 657 -72 820 83
106 100 156 224 158 388 2 182 -49 284 -221 451 -116 113 -266 225 -452 341
-160 100 -346 208 -358 208 -4 0 -35 -48 -67 -107 -33 -60 -70 -127 -83 -150
l-24 -42 83 -39 83 -40 -80 -1 c-134 -2 -255 -41 -334 -107 -51 -42 -121 -149
-147 -222 -43 -123 -29 -271 37 -389 l29 -53 -158 0 c-147 0 -162 2 -203 23
-32 17 -50 37 -69 72 l-25 49 -3 728 -3 728 -180 0 -180 0 3 -767z m1382 -391
c44 -26 68 -65 74 -120 7 -81 -34 -138 -149 -205 l-46 -27 -49 33 c-27 19 -64
53 -81 76 -76 99 -20 236 107 262 46 9 108 1 144 -19z m598 -209 c26 -54 30
-70 24 -110 -7 -55 -31 -92 -72 -113 -30 -15 -220 -27 -249 -16 -12 4 -7 18
25 68 60 92 84 180 77 281 -3 45 -8 93 -12 107 -6 18 17 1 84 -65 65 -64 101
-108 123 -152z"/>
<path d="M25390 2920 l0 -990 180 0 180 0 0 990 0 990 -180 0 -180 0 0 -990z"/>
<path d="M28280 2920 l0 -990 185 0 185 0 0 990 0 990 -185 0 -185 0 0 -990z"/>
<path d="M31757 3642 l-127 -127 128 -128 127 -127 128 128 127 127 -128 128
-127 127 -128 -128z"/>
<path d="M16580 3465 l-125 -125 120 -120 c66 -66 124 -120 130 -120 5 0 60
51 122 112 l113 113 113 -113 c62 -61 117 -112 122 -112 6 0 64 54 130 120
l120 120 -125 125 -125 125 -117 -117 -118 -118 -118 118 -117 117 -125 -125z"/>
<path d="M12187 3412 l-127 -127 133 -133 132 -132 130 130 130 130 -130 130
c-71 72 -132 130 -135 130 -3 0 -63 -57 -133 -128z"/>
<path d="M26225 3410 l-130 -130 133 -133 132 -132 132 132 133 133 -130 130
c-71 71 -132 130 -135 130 -3 0 -64 -59 -135 -130z"/>
<path d="M27350 3481 c-213 -68 -360 -321 -364 -626 -1 -85 3 -123 18 -165 51
-146 150 -226 321 -257 81 -15 207 -12 305 7 53 10 59 7 36 -18 -32 -36 -118
-74 -209 -93 -120 -25 -590 -28 -635 -5 -63 33 -96 91 -238 413 -27 62 -53
113 -57 113 -4 0 -82 -36 -172 -79 l-165 -79 39 -69 c50 -89 85 -172 113 -270
32 -114 32 -313 0 -395 -84 -209 -303 -340 -624 -373 -61 -7 -68 -10 -68 -29
0 -23 57 -337 63 -342 7 -8 226 27 313 50 255 68 434 188 554 373 49 74 101
195 119 273 5 23 11 44 14 46 2 2 30 -2 63 -11 70 -18 508 -21 644 -5 365 45
549 181 616 455 24 95 23 342 0 480 -70 406 -264 626 -548 624 -51 0 -105 -7
-138 -18z m214 -382 c38 -30 72 -93 95 -179 12 -41 21 -80 21 -86 0 -11 -50
-22 -167 -39 -64 -10 -133 4 -161 32 -21 21 -24 31 -19 71 11 84 37 154 72
189 28 28 40 33 83 33 35 0 57 -6 76 -21z"/>
<path d="M31995 3076 c-93 -17 -170 -35 -170 -41 0 -5 14 -75 30 -155 24 -120
29 -170 30 -290 0 -129 -2 -149 -21 -180 -46 -80 -116 -100 -338 -100 -143 0
-155 2 -187 23 -51 34 -86 93 -184 314 -50 112 -93 203 -97 203 -8 0 -319
-148 -327 -155 -2 -3 21 -56 52 -117 74 -148 107 -264 114 -399 6 -114 -5
-183 -39 -254 -95 -191 -306 -309 -610 -340 -53 -6 -68 -11 -68 -24 0 -21 58
-342 62 -347 2 -2 53 3 112 11 464 61 750 273 862 640 15 50 28 91 29 93 1 1
31 -5 66 -14 94 -24 422 -15 532 15 223 59 348 185 394 394 20 90 22 358 4
472 -16 99 -57 265 -68 275 -4 3 -84 -7 -178 -24z"/>
<path d="M15297 2952 l-127 -127 128 -128 127 -127 130 130 130 130 -125 125
c-69 69 -127 125 -130 125 -3 0 -63 -57 -133 -128z"/>
<path d="M33518 3041 c-78 -25 -117 -51 -187 -127 -116 -123 -191 -326 -191
-514 0 -156 42 -264 133 -346 99 -89 214 -124 415 -124 72 0 132 -3 132 -7 0
-18 -68 -108 -112 -148 -67 -60 -136 -98 -243 -134 -85 -28 -265 -61 -334 -61
-17 0 -31 -3 -31 -7 0 -24 63 -349 68 -355 9 -9 141 8 261 33 230 47 397 127
521 249 171 169 247 354 257 630 9 233 -32 450 -118 627 -44 93 -135 198 -206
240 -107 62 -252 80 -365 44z m201 -387 c44 -36 87 -134 109 -244 17 -81 17
-96 5 -103 -8 -5 -62 -9 -122 -9 -128 -1 -195 21 -207 67 -19 75 22 239 73
289 36 36 99 36 142 0z"/>
<path d="M9530 3011 c-79 -25 -142 -65 -209 -132 -75 -75 -118 -140 -203 -309
-109 -218 -158 -260 -303 -260 -59 0 -89 5 -121 21 -65 31 -79 71 -99 274 -9
94 -19 191 -22 218 l-6 47 -158 0 -158 0 -5 -42 c-3 -24 -13 -110 -21 -193
-22 -214 -24 -223 -57 -261 -44 -50 -103 -64 -273 -64 -141 0 -142 0 -182 29
-50 36 -77 85 -183 324 -46 103 -87 187 -90 187 -7 0 -322 -149 -329 -155 -1
-2 24 -59 58 -127 80 -163 102 -242 108 -398 4 -105 2 -135 -15 -186 -68 -216
-281 -356 -601 -395 -61 -7 -101 -17 -101 -23 0 -7 14 -86 30 -176 17 -90 30
-168 30 -172 0 -20 280 30 402 71 302 102 498 300 579 587 13 43 24 80 25 82
0 1 30 -5 64 -14 98 -25 389 -15 485 16 87 28 129 49 189 95 l48 36 43 -40
c85 -78 178 -111 336 -118 180 -9 321 32 425 121 l41 35 53 -36 c71 -47 200
-107 275 -127 33 -9 103 -19 155 -22 247 -16 396 99 446 346 19 98 15 252 -11
360 -35 143 -130 284 -234 348 -113 70 -289 92 -411 53z m175 -361 c23 0 84
-60 107 -104 17 -31 23 -64 26 -137 4 -88 2 -99 -17 -118 -27 -27 -92 -28
-165 -2 -64 22 -194 104 -203 128 -9 23 49 131 96 177 39 38 105 69 129 61 8
-3 20 -5 27 -5z"/>
<path d="M18258 3019 c-167 -39 -309 -188 -441 -460 -62 -127 -118 -199 -180
-230 -56 -29 -211 -25 -254 7 -56 42 -64 69 -87 307 l-21 222 -163 3 c-155 2
-162 2 -162 -17 0 -73 -44 -422 -57 -449 -9 -19 -34 -44 -62 -60 -44 -26 -53
-27 -209 -30 -150 -3 -165 -2 -207 18 -70 34 -99 86 -173 313 -35 111 -66 204
-68 206 -4 5 -327 -109 -337 -119 -5 -4 9 -63 31 -131 63 -193 86 -328 86
-494 -1 -158 -17 -226 -74 -315 -88 -137 -225 -193 -470 -193 -322 0 -483 109
-521 353 -22 142 2 299 80 528 27 78 46 144 42 146 -3 2 -75 32 -160 66 -96
38 -157 58 -163 52 -18 -18 -89 -218 -125 -352 -36 -133 -37 -138 -37 -330 -1
-173 2 -204 22 -278 85 -311 284 -482 632 -543 116 -21 375 -16 490 8 318 68
513 239 609 533 12 36 27 95 33 131 l11 67 46 -21 c39 -18 69 -22 196 -25 236
-6 349 19 482 109 l72 48 38 -35 c58 -54 112 -82 204 -105 70 -18 102 -21 204
-16 155 7 249 38 355 119 l44 35 64 -43 c139 -93 288 -138 452 -138 138 0 202
20 278 89 105 94 146 224 139 435 -7 210 -51 331 -162 449 -71 75 -133 113
-220 136 -64 16 -197 18 -257 4z m209 -407 c57 -56 77 -113 77 -215 1 -81 -1
-90 -23 -108 -57 -47 -216 2 -346 106 l-29 24 27 57 c51 103 107 160 171 173
51 11 86 0 123 -37z"/>
<path d="M21545 3023 c-220 -27 -363 -92 -508 -232 -261 -251 -344 -627 -170
-770 62 -51 111 -63 288 -70 l160 -6 -3 -30 c-12 -109 -186 -242 -387 -296
-107 -29 -337 -32 -435 -6 -144 38 -239 114 -280 225 -62 163 -48 355 43 624
30 87 52 160 48 162 -9 6 -311 126 -316 126 -17 0 -106 -249 -142 -400 -34
-144 -43 -376 -18 -505 52 -279 207 -469 455 -556 160 -57 371 -79 553 -60
404 44 685 232 800 535 29 74 31 91 32 206 0 117 -2 129 -28 182 -59 120 -152
167 -349 177 l-127 6 32 64 c63 127 180 210 327 232 41 6 90 13 108 15 l32 5
0 189 0 190 -42 -1 c-24 -1 -56 -4 -73 -6z"/>
<path d="M29746 3019 c-65 -15 -158 -71 -216 -129 -67 -68 -152 -194 -214
-317 -29 -58 -52 -93 -62 -93 -36 0 -133 -58 -187 -111 -98 -98 -155 -250
-177 -467 -7 -64 -10 -270 -8 -507 l3 -400 182 -3 181 -2 5 462 c4 482 8 523
50 605 38 72 66 70 240 -21 169 -89 273 -125 384 -133 246 -18 405 95 459 324
23 99 15 322 -16 418 -81 253 -252 387 -494 384 -50 -1 -108 -5 -130 -10z
m202 -386 c62 -39 109 -164 100 -269 -6 -69 -29 -94 -89 -94 -71 0 -207 61
-289 131 l-24 21 37 72 c20 40 52 87 71 105 60 58 136 71 194 34z"/>
<path d="M12325 2775 c-82 -41 -154 -76 -159 -77 -4 -2 15 -49 43 -103 66
-127 108 -260 121 -379 21 -182 -21 -309 -137 -425 -112 -110 -264 -175 -478
-202 -55 -7 -101 -13 -103 -14 -3 -3 59 -348 64 -357 3 -4 26 -5 52 -2 453 55
718 207 869 499 77 150 106 276 106 450 -1 133 -18 229 -64 370 -36 107 -137
315 -153 314 -6 0 -78 -34 -161 -74z"/>
<path d="M24775 2773 c-88 -43 -161 -78 -163 -79 -1 0 21 -44 48 -97 222 -422
158 -757 -175 -917 -113 -55 -187 -75 -328 -92 -80 -10 -96 -14 -93 -27 3 -9
17 -83 31 -166 35 -202 27 -185 83 -179 517 61 799 254 928 632 75 221 68 465
-21 712 -32 86 -132 290 -143 290 -4 0 -79 -35 -167 -77z"/>
<path d="M3660 1615 l-125 -125 125 -125 125 -125 117 117 118 118 118 -118
117 -117 125 125 125 125 -125 125 -125 125 -117 -117 -118 -118 -118 118
-117 117 -125 -125z"/>
<path d="M4900 1615 l-125 -125 128 -128 127 -127 127 127 128 128 -125 125
c-69 69 -127 125 -130 125 -3 0 -61 -56 -130 -125z"/>
<path d="M7860 1615 l-125 -125 125 -125 125 -125 117 117 118 118 118 -118
117 -117 125 125 125 125 -125 125 -125 125 -117 -117 -118 -118 -118 118
-117 117 -125 -125z"/>
<path d="M13760 1615 l-125 -125 128 -128 127 -127 127 127 128 128 -125 125
c-69 69 -127 125 -130 125 -3 0 -61 -56 -130 -125z"/>
</g>
</svg>
